HIERARCHY
ROOT hip
{
	OFFSET 0.000000 0.000000 0.000000 
	CHANNELS 6 Xposition Yposition Zposition Xrotation Zrotation Yrotation
	JOINT abdomen
	{
		OFFSET 0.000000 3.402643 0.000000 
		CHANNELS 3 Xrotation Zrotation Yrotation
		JOINT chest
		{
			OFFSET 0.000000 8.438565 -0.680529 
			CHANNELS 3 Xrotation Zrotation Yrotation
			JOINT neck
			{
				OFFSET 0.000000 10.207942 -0.272212 
				CHANNELS 3 Xrotation Zrotation Yrotation
				JOINT head
				{
					OFFSET 0.000000 3.130431 0.000000 
					CHANNELS 3 Xrotation Zrotation Yrotation
					End Site
					{
						OFFSET 0.000000 3.130435 0.000000 
					}
				}
			}
			JOINT lCollar
			{
				OFFSET 3.470700 6.669187 -0.816635 
				CHANNELS 3 Yrotation Zrotation Xrotation
				JOINT lShldr
				{
					OFFSET 3.198488 0.000000 0.000000 
					CHANNELS 3 Zrotation Yrotation Xrotation
					JOINT lForeArm
					{
						OFFSET 10.139888 0.000000 0.000000 
						CHANNELS 3 Yrotation Zrotation Xrotation
						JOINT lHand
						{
							OFFSET 8.370511 0.000000 0.000000 
							CHANNELS 3 Zrotation Yrotation Xrotation
							End Site
							{
								OFFSET 4.083176 0.000000 0.000000 
							}
						}
					}
				}
			}
			JOINT rCollar
			{
				OFFSET -3.470700 6.669187 -0.816635 
				CHANNELS 3 Yrotation Zrotation Xrotation
				JOINT rShldr
				{
					OFFSET -3.198488 0.000000 0.000000 
					CHANNELS 3 Zrotation Yrotation Xrotation
					JOINT rForeArm
					{
						OFFSET -10.139888 0.000000 0.000000 
						CHANNELS 3 Yrotation Zrotation Xrotation
						JOINT rHand
						{
							OFFSET -8.370511 0.000000 0.000000 
							CHANNELS 3 Zrotation Yrotation Xrotation
							End Site
							{
								OFFSET -4.083176 0.000000 0.000000 
							}
						}
					}
				}
			}
		}
	}
	JOINT lThigh
	{
		OFFSET 5.308129 -1.633274 1.361059 
		CHANNELS 3 Xrotation Zrotation Yrotation
		JOINT lShin
		{
			OFFSET -2.041588 -20.007561 0.000000 
			CHANNELS 3 Xrotation Zrotation Yrotation
			JOINT lFoot
			{
				OFFSET 0.000000 -19.190928 -1.224953 
				CHANNELS 3 Xrotation Yrotation Zrotation
				End Site
				{
					OFFSET 0.000000 -2.449906 4.627600 
				}
			}
		}
	}
	JOINT rThigh
	{
		OFFSET -5.308129 -1.633274 1.361059 
		CHANNELS 3 Xrotation Zrotation Yrotation
		JOINT rShin
		{
			OFFSET 2.041588 -20.007561 0.000000 
			CHANNELS 3 Xrotation Zrotation Yrotation
			JOINT rFoot
			{
				OFFSET 0.000000 -19.190928 -1.224953 
				CHANNELS 3 Xrotation Yrotation Zrotation
				End Site
				{
					OFFSET 0.000000 -2.449906 4.627600 
				}
			}
		}
	}
}
MOTION
Frames: 15
Frame Time: 0.033333
3.247290 65.768997 -51.867317 5.224669 -0.883654 0.762398 28.341467 1.495871 -0.475204 -24.351669 4.056123 -0.195785 -19.288469 -7.165975 -1.480606 20.607203 11.644762 -3.450454 9.553514 -10.448139 3.647584 -62.188019 -37.742714 31.972372 -54.668118 8.614039 10.080527 8.524705 12.647240 -47.464245 -5.779580 5.050342 2.610686 63.431381 26.457609 21.985107 54.871624 -8.658046 10.173628 -8.534408 -12.637552 39.505718 -11.226189 8.473298 0.465394 25.386322 -5.576530 -4.253826 13.675597 0.031774 -2.199927 -7.685357 -6.533052 -2.042720 23.666277 5.623698 3.992152 9.404906 -11.660006 4.431564 
3.258297 65.348495 -51.889645 5.263537 -0.929471 0.934299 28.235352 1.602383 -0.479172 -24.586533 3.966882 -0.214560 -19.399540 -7.250203 -1.131963 21.619852 12.009708 -2.630202 9.553514 -10.448139 3.647584 -61.815598 -37.605923 31.763866 -55.345463 8.725248 10.372478 8.524705 12.647240 -49.720104 -5.779580 5.050342 2.610686 63.307930 26.151754 21.683022 55.676613 -8.787169 10.522806 -8.534408 -12.637552 36.693218 -11.248270 8.445943 0.143248 25.044405 -5.586242 -4.215373 13.229432 0.661170 -2.364478 -7.631342 -6.528359 -1.992355 23.320313 5.644526 3.955723 9.140123 -11.355537 4.333646 
3.263016 64.878929 -51.920467 5.341527 -0.907028 0.994097 28.107687 1.543476 -0.497005 -24.821512 3.996025 -0.223676 -19.182661 -7.156383 -1.296134 21.526363 11.790340 -2.943858 9.553514 -10.448139 3.647584 -61.541683 -37.487827 31.857576 -55.451374 8.741703 10.416647 8.524705 12.647240 -49.661510 -5.779580 5.050342 2.610686 63.170452 25.650988 22.089720 56.184177 -8.858405 10.744890 -8.534408 -12.637552 36.585796 -11.259158 8.368634 -0.079250 24.713194 -5.595875 -4.148612 12.826389 1.410473 -2.534325 -7.704470 -6.581502 -1.866241 23.027111 5.654110 3.910767 8.935935 -10.976425 4.246931 
3.244774 64.396797 -51.974880 5.507572 -0.897373 0.963241 27.881590 1.449391 -0.583486 -24.890263 4.141630 -0.241760 -18.771660 -7.153685 -1.411471 21.117233 11.685161 -3.150701 9.553514 -10.448139 3.647584 -61.346313 -37.518826 31.816807 -55.661938 8.768335 10.495871 8.524705 12.647240 -49.886120 -5.779580 5.050342 2.610686 63.010204 25.386444 22.697981 56.374191 -8.882098 10.823606 -8.534408 -12.637552 38.040874 -11.317560 8.348968 -0.245252 24.370420 -5.605448 -4.119794 12.304535 1.809854 -2.678981 -7.955761 -6.549995 -1.594933 22.854713 5.662588 3.877967 8.676648 -10.815486 4.201707 
3.224017 63.887608 -52.031807 5.702765 -0.896755 1.019450 27.616871 1.302533 -0.569893 -24.890255 4.133684 -0.221421 -18.519938 -7.158620 -1.547541 20.905649 11.893452 -3.367637 9.553514 -10.448139 3.647584 -60.883644 -37.470104 32.715237 -55.652409 8.770914 10.494053 8.524705 12.647240 -46.946667 -5.779580 5.050342 2.610686 63.019691 25.239082 23.075834 56.501755 -8.900826 10.878881 -8.534408 -12.637552 39.222511 -11.432426 8.347330 -0.284845 24.037685 -5.615092 -4.082129 11.804024 1.850434 -2.705153 -8.256348 -6.519076 -1.393227 22.733952 5.663697 3.857027 8.359879 -10.576587 4.136964 
3.211750 63.317406 -52.066086 5.751472 -0.883084 1.069225 27.518414 1.175292 -0.469308 -24.811790 4.039348 -0.177863 -18.502497 -7.123993 -1.665271 20.932268 12.125731 -3.549249 9.553514 -10.448139 3.647584 -60.414818 -37.510349 33.285637 -55.630695 8.765657 10.484228 8.524705 12.647240 -45.071667 -5.779580 5.050342 2.610686 63.072651 25.275101 23.235065 56.480213 -8.895419 10.859108 -8.534408 -12.637552 40.150249 -11.429252 8.354858 -0.305184 23.722929 -5.634307 -4.038297 11.463243 2.127069 -2.779405 -8.424129 -6.501134 -1.248951 22.618628 5.685741 3.831929 7.992725 -10.348779 4.044324 
3.199170 62.722359 -52.096596 5.683370 -0.856618 0.915763 27.546249 1.032362 -0.456229 -24.723824 4.139476 -0.151087 -18.437040 -7.184293 -1.677928 20.843822 12.176321 -3.577029 9.553514 -10.448139 3.647584 -60.254589 -37.625916 32.974888 -56.499210 8.890047 10.861280 8.524705 12.647240 -47.112682 -5.779580 5.050342 2.610686 62.926258 25.479473 23.278572 56.586056 -8.909100 10.904459 -8.534408 -12.637552 39.798691 -11.193276 8.324316 -0.274662 23.419682 -5.644043 -4.003205 11.376786 2.701031 -2.875584 -8.452204 -6.490438 -1.082679 22.537689 5.687117 3.824247 7.715896 -10.123883 3.980475 
3.199170 62.112213 -52.125217 5.683651 -0.804256 0.685304 27.564003 0.882618 -0.403022 -24.782820 4.288702 -0.129456 -18.603361 -7.196904 -1.613435 21.014708 12.109792 -3.473222 9.553514 -10.448139 3.647584 -60.265007 -37.812016 32.795849 -56.827618 8.932226 10.997839 8.524705 12.647240 -47.893932 -5.779580 5.050342 2.610686 62.701839 25.580751 22.893776 57.054020 -8.975531 11.115317 -8.534408 -12.637552 37.064316 -11.046951 8.265773 -0.213684 23.237038 -5.650162 -3.997369 11.566607 3.187280 -2.949576 -8.514278 -6.512626 -1.142553 22.467571 5.682692 3.836732 7.760686 -9.671021 3.916839 
3.196968 61.458038 -52.152576 5.683674 -0.704226 0.567696 27.621698 0.693680 -0.460670 -24.890779 4.406042 -0.138419 -18.827261 -7.228611 -1.470099 21.377493 12.180754 -3.193644 9.553514 -10.448139 3.647584 -60.162777 -38.019920 32.875305 -56.944187 8.947658 11.053458 8.524705 12.647240 -47.747444 -5.779580 5.050342 2.610686 62.493439 25.485308 23.785807 56.809765 -8.943651 11.013476 -8.534408 -12.637552 39.740093 -10.944580 8.142546 -0.218599 23.176771 -5.653982 -3.963671 11.680567 3.227212 -2.971308 -8.587981 -6.567812 -1.201260 22.377272 5.682267 3.819035 7.953055 -9.398669 3.901243 
3.192880 60.751022 -52.180252 5.654451 -0.795247 0.598254 27.632240 0.829853 -0.581807 -24.988712 4.402175 -0.184816 -18.671946 -7.278408 -1.469866 21.372904 12.291409 -3.163339 9.553514 -10.448139 3.647584 -59.951923 -37.963387 33.003925 -57.157040 8.977813 11.151733 8.524705 12.647240 -47.151745 -5.779580 5.050342 2.610686 62.293743 25.369740 24.322653 57.032310 -8.971047 11.105163 -8.534408 -12.637552 39.867046 -10.924295 8.210369 -0.269999 23.227030 -5.654095 -3.968080 11.762402 3.209596 -2.967200 -8.568170 -6.430909 -1.418202 22.316542 5.681972 3.823436 8.186050 -9.187942 3.889087 
3.188162 60.003441 -52.206043 5.635082 -1.012553 0.714413 27.555632 1.065974 -0.613028 -24.900408 4.329926 -0.220468 -18.577320 -7.122639 -1.549135 21.228861 12.249394 -3.265635 9.553514 -10.448139 3.647584 -59.658882 -37.984379 33.173862 -57.379490 9.003443 11.244090 8.524705 12.647240 -46.390026 -5.779580 5.050342 2.610686 62.272282 25.351418 24.165197 57.700741 -9.052118 11.399301 -8.534408 -12.637552 37.669777 -11.012337 8.415516 -0.463256 23.307089 -5.654376 -3.984872 11.611605 3.343508 -2.979322 -8.522650 -6.160073 -1.754123 22.319374 5.672713 3.802351 8.591075 -8.835396 3.856954 
3.173381 59.242962 -52.245670 5.674264 -1.159708 0.807079 27.419430 1.103302 -0.549794 -24.626041 4.234486 -0.181659 -18.495163 -7.044079 -1.579952 20.853008 12.509585 -3.277484 9.553514 -10.448139 3.647584 -59.341824 -38.303272 33.264324 -57.666965 9.040392 11.369292 8.524705 12.647240 -46.263077 -5.779580 5.050342 2.610686 62.416660 25.538721 24.718517 57.138096 -8.983359 11.149543 -8.534408 -12.637552 41.283062 -11.098273 8.580066 -0.694963 23.407810 -5.654909 -3.984040 10.881638 3.266329 -2.986540 -8.597194 -5.932969 -2.090780 22.409678 5.673135 3.820038 9.209035 -8.566677 3.863444 
3.160171 58.447884 -52.294418 5.732964 -1.186757 0.773812 27.350256 0.955456 -0.425822 -24.420343 4.179956 -0.122735 -18.514866 -7.010374 -1.628836 20.432648 12.788004 -3.377279 9.553514 -10.448139 3.647584 -59.079334 -38.695095 33.350769 -57.900024 9.065645 11.471198 8.524705 12.647240 -46.214245 -5.779580 5.050342 2.610686 62.532238 25.884270 24.482740 57.254639 -8.997906 11.205521 -8.534408 -12.637552 40.677589 -11.185608 8.628551 -0.912749 23.530460 -5.644373 -4.003204 11.246590 4.021453 -3.121056 -8.854472 -5.837775 -2.371584 22.663231 5.663351 3.860542 9.846616 -8.053921 3.794433 
3.152938 57.590225 -52.332161 5.674478 -1.199608 0.714785 27.398693 0.890080 -0.446307 -24.312685 4.228848 -0.118857 -18.604784 -7.049084 -1.599373 20.302120 12.938499 -3.332459 9.553514 -10.448139 3.647584 -58.994865 -39.009254 33.419430 -58.207657 9.097653 11.600014 8.524705 12.647240 -45.706432 -5.779580 5.050342 2.610686 62.410156 26.008837 24.943733 57.509701 -9.029026 11.308626 -8.534408 -12.637552 41.283062 -11.334074 8.639837 -1.197687 24.147938 -5.615553 -4.091867 9.647442 4.095289 -3.152177 -9.144526 -5.777280 -2.632557 23.423275 5.633636 3.962381 9.559995 -7.438800 3.690418 
3.138785 56.662430 -52.382481 5.479087 -1.256956 0.830852 27.525368 0.972879 -0.765867 -24.352219 4.514370 -0.223511 -18.271225 -7.204620 -1.433335 19.997625 13.036128 -3.002928 9.553514 -10.448139 3.647584 -59.107658 -39.046825 33.140884 -58.803440 9.161449 11.864549 8.524705 12.647240 -45.491585 -5.779580 5.050342 2.610686 61.958504 25.898050 25.875582 57.828297 -9.066195 11.446433 -8.534408 -12.637552 42.025253 -11.381951 8.668436 -1.473615 25.380106 -5.553056 -4.277270 5.702971 2.419626 -3.021128 -9.474797 -5.698144 -2.904805 24.808336 5.574999 4.133785 4.888257 -5.716380 3.287977 
